PathFileType	3	(X/Y/Z)	C:\Users\koon_\Desktop\
DataRate	CameraRate	NumFrames	NumMarkers	Units	OrigDataRate	OrigDataStartFrame	OrigNumFrames
100.0	100.0	4	27	mm	100.0	1	3804	
Frame#	Time	get:LFHD			get:RFHD			get:LBHD			get:RBHD			get:C7			get:T10			get:CLAV			get:STRN			get:RBAK			get:LSHO			get:LUPA			get:LELB			get:LFRA			get:LWRA			get:LWRB			get:LFIN			get:RSHO			get:RUPA			get:RELB			get:RFRA			get:RWRA			get:RWRB			get:RFIN			get:LASI			get:RASI			get:LPSI			get:RPSI			
		X1	Y1	Z1	X2	Y2	Z2	X3	Y3	Z3	X4	Y4	Z4	X5	Y5	Z5	X6	Y6	Z6	X7	Y7	Z7	X8	Y8	Z8	X9	Y9	Z9	X10	Y10	Z10	X11	Y11	Z11	X12	Y12	Z12	X13	Y13	Z13	X14	Y14	Z14	X15	Y15	Z15	X16	Y16	Z16	X17	Y17	Z17	X18	Y18	Z18	X19	Y19	Z19	X20	Y20	Z20	X21	Y21	Z21	X22	Y22	Z22	X23	Y23	Z23	X24	Y24	Z24	X25	Y25	Z25	X26	Y26	Z26	X27	Y27	Z27	
1	0	101.03372	1554.1776	-19.316406	-39.890408	1552.7109	-22.143389	80.53611	1553.4287	-180.3551	-48.991524	1527.8003	-187.42253	31.949699	1335.3818	-208.68503	21.891083	1125.5101	-251.36942	30.777548	1266.3864	-17.745968	39.014008	1070.2585	24.148571	-49.504227	1260.6934	-237.26016	165.13861	1338.3414	-128.1546	253.82715	1200.5865	-114.42705	274.99384	1003.0532	-128.48947	280.17758	879.74817	-52.69553	259.90082	802.44647	-20.524208	287.16589	792.41791	-101.46688	319.11847	728.77539	-31.135883	-106.56245	1331.9503	-124.77128	-205.2056	1115.309	-94.322205	-201.2115	998.06775	-155.2681	-232.79384	952.03528	-74.401894	-235.24452	800.86145	-31.936493	-238.7906	790.80566	-115.02917	-288.94141	731.14685	-47.600761	165.50142	890.0755	-19.874777	-101.71587	876.93384	-9.0955868	65.427956	944.03137	-232.96552	-24.134451	943.39545	-231.28232
2	0.01	101.21228	1554.1917	-19.389822	-39.749157	1552.8031	-22.10675	80.583458	1553.3424	-180.41414	-48.923504	1527.7965	-187.40443	31.984524	1335.3611	-208.68103	21.889782	1125.5127	-251.32036	30.772959	1266.3699	-17.674469	38.982887	1070.2574	24.174965	-49.487339	1260.6929	-237.18863	165.17435	1338.325	-128.13692	253.84322	1200.5458	-114.43085	275.01523	1003.0325	-128.44055	280.16492	879.76489	-52.546261	259.97723	802.45276	-20.386721	287.17911	792.42969	-101.38235	319.21954	728.80426	-31.007141	-106.5348	1331.9485	-124.67302	-205.19514	1115.324	-94.186554	-201.25789	998.10956	-155.22758	-232.84988	952.11499	-74.497353	-235.28426	800.87555	-31.882177	-238.89891	790.87152	-115.03184	-289.00751	731.15387	-47.583527	165.49931	890.10309	-19.77573	-101.73502	876.96857	-9.163559	65.416679	944.03937	-232.88364	-24.144484	943.38281	-231.24513
3	0.02	101.37832	1554.2135	-19.48032	-39.570831	1552.86	-22.106739	80.680054	1553.2821	-180.4819	-48.83889	1527.7924	-187.42441	32.007584	1335.3412	-208.60838	21.863098	1125.4963	-251.21539	30.801695	1266.3867	-17.69375	38.284447	1070.1581	24.351929	-49.509445	1260.6869	-237.11993	165.19095	1338.3063	-128.08551	253.86682	1200.5251	-114.40204	275.08618	1003.0022	-128.39131	280.18246	879.82104	-52.406746	260.03986	802.46106	-20.285658	287.24304	792.42322	-101.2551	319.27979	728.85706	-30.850599	-106.53356	1331.9523	-124.58908	-205.22388	1115.3628	-94.288727	-201.28317	998.12091	-155.19695	-232.89383	952.12024	-74.410484	-235.32214	800.91974	-31.843788	-238.96078	790.90778	-115.00864	-289.04523	731.17474	-47.57695	165.48161	890.0694	-19.756472	-101.75274	876.95691	-9.0667276	65.446136	944.01611	-232.85374	-24.134666	943.37506	-231.15536
4	0.03	101.55891	1554.2168	-19.556278	-39.443794	1552.9331	-22.081797	80.722702	1553.1682	-180.53709	-48.807205	1527.7904	-187.45097	32.009941	1335.3556	-208.59416	21.850765	1125.4703	-251.15836	30.84812	1266.3719	-17.665442	38.306259	1070.1472	24.394789	-49.514954	1260.6737	-237.06531	165.20279	1338.2794	-128.07861	253.87949	1200.5166	-114.39747	275.09793	1002.9673	-128.34308	280.24649	879.81439	-52.350742	260.08844	802.49402	-20.117657	287.29327	792.40179	-101.14945	319.35309	728.8797	-30.686378	-106.46958	1331.9944	-124.5591	-205.24883	1115.3829	-94.19059	-201.32553	998.18561	-155.18022	-232.92918	952.1676	-74.316338	-235.3846	800.93744	-31.85178	-239.03741	790.90045	-114.95602	-289.12338	731.2265	-47.522308	165.46233	890.07715	-19.712152	-101.73693	876.94281	-8.9554834	65.422501	944.00201	-232.78395	-24.098459	943.34973	-231.10352
